<svg xmlns="http://www.w3.org/2000/svg" xmlns:xlink="http://www.w3.org/1999/xlink" id="Layer_1" width="24" height="24" x="0" y="0" enable-background="new .5 1 24 24" version="1.1" viewBox="0.5 1 24 24" xml:space="preserve"><title>DAEE2319-D6DE-41A6-B40E-0ADC1BD947EA</title><g><path fill="#AEB4BA" d="M12.501,23.745c-2.753,0-5.506-1.047-7.602-3.143c-4.191-4.192-4.191-11.013,0-15.203 c4.191-4.19,11.011-4.19,15.203,0c4.19,4.19,4.19,11.011,0,15.203l0,0C18.006,22.698,15.254,23.745,12.501,23.745z M12.5,3.756 c-2.369,0-4.737,0.901-6.541,2.704c-3.606,3.605-3.606,9.475,0,13.082c3.608,3.606,9.476,3.604,13.082,0 c3.605-3.607,3.606-9.477,0-13.082C17.237,4.657,14.869,3.756,12.5,3.756z M18.262,13.857H6.74v-1.5h11.522V13.857z"/></g></svg>